<?xml version="1.0" encoding="UTF-8"?>
<svg xmlns="http://www.w3.org/2000/svg" viewBox="0 0 101.15 52.45">
  <defs>
    <style>
      .cls-1 {
        stroke-width: .82px;
      }

      .cls-1, .cls-2, .cls-3 {
        stroke: #231f20;
        stroke-linecap: round;
        stroke-linejoin: round;
      }

      .cls-1, .cls-3 {
        fill: none;
      }

      .cls-4 {
        font-size: 18.42px;
      }

      .cls-4, .cls-5 {
        fill: #231f20;
        font-family: Calibri-Bold, Calibri;
        font-weight: 700;
      }

      .cls-6 {
        fill: #ed1c24;
      }

      .cls-6, .cls-7 {
        stroke-width: 0px;
      }

      .cls-5 {
        font-size: 10px;
      }

      .cls-2 {
        stroke-width: .5px;
      }

      .cls-2, .cls-7 {
        fill: #fff;
      }

      .cls-3 {
        stroke-width: 1.07px;
      }
    </style>
  </defs>
  <g id="D">
    <path class="cls-2" d="M55.89,25.6c0,2.2-.27,4.09-.8,5.65-.53,1.57-1.3,2.84-2.29,3.83-1,.99-2.21,1.72-3.63,2.18s-3.12.7-5.09.7h-5.3c-.38,0-.69-.12-.95-.36s-.39-.63-.39-1.18V15.49c0-.54.13-.94.39-1.18s.57-.36.95-.36h5.7c1.98,0,3.66.25,5.04.75,1.38.5,2.54,1.24,3.48,2.23.94.98,1.66,2.2,2.15,3.65.49,1.45.74,3.13.74,5.03ZM51.22,25.77c0-1.14-.12-2.2-.37-3.17-.25-.98-.64-1.83-1.18-2.54-.54-.72-1.24-1.28-2.09-1.68-.85-.4-1.97-.6-3.35-.6h-2.28v16.34h2.35c1.24,0,2.28-.17,3.12-.52.85-.35,1.55-.87,2.12-1.57s.99-1.57,1.27-2.61c.28-1.04.42-2.25.42-3.64Z"/>
  </g>
</svg>