<?xml version="1.0" encoding="UTF-8"?>
<svg xmlns="http://www.w3.org/2000/svg" viewBox="0 0 101.15 52.45">
  <defs>
    <style>
      .cls-1 {
        stroke-width: .82px;
      }

      .cls-1, .cls-2, .cls-3, .cls-4 {
        stroke: #231f20;
      }

      .cls-1, .cls-4 {
        fill: none;
        stroke-linecap: round;
        stroke-linejoin: round;
      }

      .cls-5 {
        font-size: 18.42px;
      }

      .cls-5, .cls-6 {
        fill: #231f20;
      }

      .cls-5, .cls-6, .cls-3 {
        font-family: Calibri-Bold, Calibri;
        font-weight: 700;
      }

      .cls-2, .cls-3 {
        stroke-miterlimit: 10;
        stroke-width: .5px;
      }

      .cls-2, .cls-3, .cls-7 {
        fill: #fff;
      }

      .cls-6 {
        font-size: 10px;
      }

      .cls-3 {
        font-size: 12.45px;
      }

      .cls-8 {
        fill: #50b848;
      }

      .cls-8, .cls-7 {
        stroke-width: 0px;
      }

      .cls-4 {
        stroke-width: 1.07px;
      }
    </style>
  </defs>
  <g id="A_" data-name="A++">
    <path class="cls-2" d="M51.63,36.15c.14.45.22.8.26,1.06.03.26-.01.45-.14.58s-.35.21-.67.24c-.32.03-.76.05-1.32.05s-1.04,0-1.36-.03-.58-.06-.75-.11c-.17-.06-.29-.13-.36-.23-.07-.1-.13-.23-.17-.39l-1.49-4.83h-8.34l-1.41,4.7c-.05.17-.11.32-.18.44-.07.12-.19.21-.36.28-.17.07-.4.11-.7.14-.3.02-.7.04-1.19.04-.53,0-.94-.02-1.24-.06s-.5-.13-.62-.27c-.11-.14-.15-.34-.12-.6.03-.26.12-.61.26-1.04l6.85-21.31c.07-.21.15-.38.24-.51.09-.13.24-.23.44-.3.2-.07.48-.11.83-.13s.82-.03,1.41-.03c.67,0,1.21,0,1.61.03s.71.06.94.13.38.17.48.31.18.32.25.56l6.86,21.3ZM41.43,18.53h-.02l-3.14,10.21h6.3l-3.14-10.21Z"/>
    <text class="cls-3" transform="translate(47.89 20.01) scale(1 1.01)"><tspan x="0" y="0">++</tspan></text>
  </g>
</svg>