<svg xmlns="http://www.w3.org/2000/svg" viewBox="0 0 42 54">
  <rect x="5.68" y="19.36" width="30.64" height="30.64" rx=".71" ry=".71" fill="none" stroke="#000" stroke-miterlimit="10"/>
  <polyline points="10.71 19.36 10.71 11.69 31.29 11.69 31.29 19.36" fill="none" stroke="#000" stroke-miterlimit="10"/>
  <polyline points="25.35 11.66 25.35 4 28.15 4 28.15 11.66" fill="none" stroke="#000" stroke-miterlimit="10"/>
  <polyline points="13.85 11.66 13.85 4 16.65 4 16.65 11.66" fill="none" stroke="#000" stroke-miterlimit="10"/>
  <path d="M24.17,32.65l-1.38,5.66h-1.02l-.91-4.36-.9,4.36h-1.02l-1.37-5.66h.97l.92,4.56.91-4.55h1.01l.92,4.55.91-4.56h.96Z"/>
  <path d="M13.33,27.24c0,.38-.08.71-.23,1s-.38.51-.66.67c-.28.16-.61.23-.99.23s-.72-.08-1.01-.24c-.29-.16-.51-.39-.67-.69-.16-.3-.24-.64-.24-1.03,0-.44.08-.84.24-1.22.16-.38.44-.81.84-1.29l1.16-1.39.73.56-1.16,1.33c-.14.16-.23.27-.3.35.2-.06.41-.09.62-.09.33,0,.63.08.88.23.25.15.45.36.59.64.14.27.21.59.21.95ZM12.39,27.27c0-.34-.09-.61-.27-.8-.18-.19-.42-.29-.73-.29-.26,0-.51.06-.75.17-.12.25-.17.52-.17.83,0,.36.09.65.26.85.17.2.42.3.72.3.29,0,.52-.09.69-.28.17-.19.25-.45.25-.78Z"/>
  <path d="M13.86,26.21c0-1.01.16-1.75.48-2.22.32-.47.81-.71,1.48-.71s1.16.24,1.49.71c.33.47.49,1.21.49,2.22s-.16,1.75-.49,2.22c-.33.47-.82.71-1.48.71s-1.16-.24-1.48-.71c-.33-.47-.49-1.21-.49-2.22ZM16.84,26.21c0-.73-.08-1.26-.25-1.6s-.42-.5-.78-.5-.6.17-.77.5c-.16.34-.24.87-.24,1.6s.08,1.26.24,1.6c.16.34.42.5.77.5s.61-.17.77-.5c.16-.34.24-.87.24-1.6Z"/>
  <path d="M19.79,26.33h2.52v.73h-2.52v-.73Z"/>
  <path d="M27.99,27.24c0,.38-.08.71-.23,1s-.38.51-.66.67c-.28.16-.61.23-.99.23s-.72-.08-1.01-.24-.51-.39-.67-.69-.24-.64-.24-1.03c0-.44.08-.84.24-1.22s.44-.81.84-1.29l1.16-1.39.73.56-1.16,1.33c-.14.16-.23.27-.3.35.2-.06.41-.09.62-.09.33,0,.63.08.88.23s.45.36.59.64.21.59.21.95ZM27.05,27.27c0-.34-.09-.61-.27-.8s-.42-.29-.73-.29c-.25,0-.5.06-.75.17-.11.25-.17.52-.17.83,0,.36.09.65.26.85s.42.3.72.3.52-.09.69-.28.25-.45.25-.78Z"/>
  <path d="M31.94,27.21c0,.39-.08.72-.25,1.02-.17.29-.4.52-.7.68-.3.16-.65.24-1.05.24-.3,0-.6-.04-.89-.13-.29-.09-.54-.2-.73-.34l.34-.76c.21.12.43.21.66.28.22.07.43.1.62.1.33,0,.59-.09.78-.28.18-.19.28-.45.28-.77s-.09-.56-.25-.74c-.17-.17-.41-.26-.71-.26-.15,0-.3.02-.45.06s-.3.09-.44.17l-.57-.3.15-2.77h2.98v.81h-2.15l-.11,1.31c.24-.08.49-.12.73-.12.36,0,.67.08.94.23.27.15.48.36.62.64s.22.59.22.95Z"/>
  <path d="M13.06,44.29v-2.39h.68v2.43c0,.36.27.64.63.64s.64-.28.64-.64v-2.43h.68v2.39c0,.86-.56,1.31-1.32,1.31s-1.32-.45-1.32-1.31Z"/>
  <path d="M15.91,44.95l.62-.49c.19.32.47.5.8.5.36,0,.56-.24.56-.49,0-.31-.37-.41-.76-.53-.49-.16-1.04-.35-1.04-1.04,0-.59.51-1.05,1.21-1.05.59,0,.93.22,1.23.53l-.56.43c-.16-.23-.37-.35-.66-.35-.33,0-.51.18-.51.42,0,.29.35.39.75.52.5.16,1.06.38,1.06,1.08,0,.58-.46,1.14-1.26,1.14-.66,0-1.1-.28-1.43-.66Z"/>
  <path d="M18.92,41.9h1.15c.8,0,1.27.36,1.27,1.02,0,.31-.14.55-.4.71.34.15.53.44.53.84,0,.72-.51,1.08-1.31,1.08h-1.24v-3.65ZM19.6,42.53v.83h.47c.43,0,.59-.17.59-.43s-.17-.4-.59-.4h-.47ZM19.6,43.99v.94h.56c.41,0,.63-.17.63-.47s-.15-.47-.66-.47h-.53Z"/>
  <path d="M23.01,41.9h1.25c.76,0,1.32.58,1.32,1.3s-.56,1.31-1.32,1.31h-.57v1.05h-.68v-3.65ZM23.69,42.53v1.35h.52c.41,0,.68-.3.68-.67s-.28-.67-.68-.67h-.52Z"/>
  <path d="M25.92,41.9h1c1.23,0,1.93.79,1.93,1.83s-.79,1.83-1.9,1.83h-1.03v-3.65ZM26.6,42.53v2.39h.27c.8,0,1.3-.52,1.3-1.2s-.43-1.2-1.33-1.2h-.24Z"/>
</svg>
