<svg xmlns="http://www.w3.org/2000/svg" viewBox="0 0 42 54">
  <rect x="5.68" y="19.36" width="30.64" height="30.64" rx=".71" ry=".71" fill="none" stroke="#000" stroke-miterlimit="10"/>
  <polyline points="10.71 19.36 10.71 11.69 31.29 11.69 31.29 19.36" fill="none" stroke="#000" stroke-miterlimit="10"/>
  <polyline points="25.35 11.66 25.35 4 28.15 4 28.15 11.66" fill="none" stroke="#000" stroke-miterlimit="10"/>
  <polyline points="13.85 11.66 13.85 4 16.65 4 16.65 11.66" fill="none" stroke="#000" stroke-miterlimit="10"/>
  <path d="M13.06,44.29v-2.39h.68v2.43c0,.36.27.64.63.64s.64-.28.64-.64v-2.43h.68v2.39c0,.86-.56,1.31-1.32,1.31s-1.32-.45-1.32-1.31Z"/>
  <path d="M15.91,44.95l.62-.49c.19.32.47.5.8.5.36,0,.56-.24.56-.49,0-.31-.37-.41-.76-.53-.49-.16-1.04-.35-1.04-1.04,0-.59.51-1.05,1.21-1.05.59,0,.93.22,1.23.53l-.56.43c-.16-.23-.37-.35-.66-.35-.33,0-.51.18-.51.42,0,.29.35.39.75.52.5.16,1.06.38,1.06,1.08,0,.58-.46,1.14-1.26,1.14-.66,0-1.1-.28-1.43-.66Z"/>
  <path d="M18.92,41.9h1.15c.8,0,1.27.36,1.27,1.02,0,.31-.14.55-.4.71.34.15.53.44.53.84,0,.72-.51,1.08-1.31,1.08h-1.24v-3.65ZM19.6,42.53v.83h.47c.43,0,.59-.17.59-.43s-.17-.4-.59-.4h-.47ZM19.6,43.99v.94h.56c.41,0,.63-.17.63-.47s-.15-.47-.66-.47h-.53Z"/>
  <path d="M23.01,41.9h1.25c.76,0,1.32.58,1.32,1.3s-.56,1.31-1.32,1.31h-.57v1.05h-.68v-3.65ZM23.69,42.53v1.35h.52c.41,0,.68-.3.68-.67s-.28-.67-.68-.67h-.52Z"/>
  <path d="M25.92,41.9h1c1.23,0,1.93.79,1.93,1.83s-.79,1.83-1.9,1.83h-1.03v-3.65ZM26.6,42.53v2.39h.27c.8,0,1.3-.52,1.3-1.2s-.43-1.2-1.33-1.2h-.24Z"/>
  <path d="M24.17,32.65l-1.38,5.66h-1.02l-.91-4.36-.9,4.36h-1.02l-1.37-5.66h.97l.92,4.56.91-4.55h1.01l.92,4.55.91-4.56h.96Z"/>
  <path d="M12.43,25.36c0,.41-.08.79-.23,1.15-.15.35-.41.76-.78,1.2l-1.08,1.3-.68-.53,1.09-1.25c.13-.15.22-.26.28-.33-.18.06-.38.09-.59.09-.31,0-.59-.07-.83-.21s-.42-.34-.55-.6c-.13-.26-.19-.55-.19-.89s.07-.66.22-.93c.15-.27.35-.48.62-.63.27-.15.58-.22.93-.22s.68.08.95.23c.27.15.48.37.63.64.15.28.22.6.22.97ZM10.69,26.3c.24,0,.47-.05.7-.16.11-.23.16-.49.16-.78,0-.34-.08-.61-.25-.8-.16-.19-.39-.29-.68-.29s-.49.09-.64.26-.23.42-.23.73.08.57.25.75.4.27.69.27Z"/>
  <path d="M16.19,27.21c0,.36-.08.68-.23.95s-.38.48-.66.63c-.28.15-.61.22-.99.22-.28,0-.56-.04-.84-.12-.28-.08-.5-.19-.68-.32l.32-.71c.2.11.41.2.62.26.21.06.41.09.59.09.31,0,.56-.09.73-.26.17-.18.26-.42.26-.72s-.08-.53-.24-.69c-.16-.16-.38-.25-.67-.25-.14,0-.28.02-.42.05-.15.04-.28.09-.41.16l-.54-.29.14-2.6h2.79v.76h-2.01l-.1,1.23c.23-.07.46-.11.68-.11.34,0,.63.07.88.21.25.14.45.34.59.6.14.26.21.56.21.89Z"/>
  <path d="M23.58,23.62v5.3h-.87v-4.4l-1.16.4-.25-.72,1.52-.59h.75Z"/>
  <path d="M24.62,26.27c0-.95.15-1.64.45-2.08.3-.44.76-.66,1.38-.66s1.09.22,1.4.66c.3.44.46,1.14.46,2.08s-.15,1.64-.46,2.08c-.31.44-.77.67-1.39.67s-1.08-.22-1.39-.67c-.3-.44-.46-1.14-.46-2.08ZM27.41,26.27c0-.68-.08-1.18-.23-1.5-.15-.31-.4-.47-.73-.47s-.57.16-.72.47c-.15.32-.23.81-.23,1.5s.08,1.18.23,1.5c.15.31.39.47.73.47s.57-.16.72-.47c.15-.32.23-.81.23-1.5Z"/>
  <path d="M28.83,26.27c0-.95.15-1.64.45-2.08.3-.44.76-.66,1.38-.66s1.09.22,1.4.66c.3.44.46,1.14.46,2.08s-.15,1.64-.46,2.08c-.31.44-.77.67-1.39.67s-1.08-.22-1.39-.67c-.3-.44-.46-1.14-.46-2.08ZM31.62,26.27c0-.68-.08-1.18-.23-1.5-.15-.31-.4-.47-.73-.47s-.57.16-.72.47c-.15.32-.23.81-.23,1.5s.08,1.18.23,1.5c.15.31.39.47.73.47s.57-.16.72-.47c.15-.32.23-.81.23-1.5Z"/>
  <path d="M17.92,26.38h2.37v.69h-2.37v-.69Z"/>
</svg>
