<svg xmlns="http://www.w3.org/2000/svg" viewBox="0 0 42 54">
  <rect x="5.68" y="19.36" width="30.64" height="30.64" rx=".71" ry=".71" fill="none" stroke="#000" stroke-miterlimit="10"/>
  <polyline points="10.71 19.36 10.71 11.69 31.29 11.69 31.29 19.36" fill="none" stroke="#000" stroke-miterlimit="10"/>
  <path d="M25.34,11.67v-7.67h2.8v7.67" fill="none" stroke="#000" stroke-miterlimit="10"/>
  <path d="M13.86,11.67v-7.67h2.8v7.67" fill="none" stroke="#000" stroke-miterlimit="10"/>
  <path d="M12.45,33.23v.81h-3.52v-.82l1.89-2.19c.25-.29.41-.51.51-.68s.14-.32.14-.48c0-.23-.08-.41-.23-.54s-.37-.2-.64-.2c-.21,0-.43.04-.66.11s-.44.18-.64.31l-.42-.71c.23-.17.51-.3.84-.41s.65-.16.96-.16c.34,0,.65.06.91.19s.47.31.61.54.21.5.21.8c0,.27-.07.54-.2.8s-.36.58-.69.95l-1.49,1.67h2.42Z"/>
  <path d="M13.28,33.99c-.1-.1-.16-.24-.16-.42s.05-.32.16-.43.25-.15.44-.15.33.05.44.15.16.24.16.42-.05.32-.16.43-.25.15-.44.15-.33-.05-.44-.15Z"/>
  <path d="M16.58,28.38v5.66h-.93v-4.7l-1.23.43-.27-.77,1.62-.62h.8Z"/>
  <path d="M19.05,31.33h2.52v.73h-2.52v-.73Z"/>
  <path d="M26.86,33.23v.81h-3.52v-.82l1.89-2.19c.25-.29.41-.51.51-.68s.14-.32.14-.48c0-.23-.08-.41-.23-.54s-.37-.2-.64-.2c-.21,0-.43.04-.66.11s-.44.18-.64.31l-.42-.71c.23-.17.51-.3.84-.41s.65-.16.96-.16c.34,0,.65.06.91.19s.47.31.61.54.21.5.21.8c0,.27-.07.54-.2.8s-.36.58-.69.95l-1.49,1.67h2.42Z"/>
  <path d="M27.69,33.99c-.1-.1-.16-.24-.16-.42s.05-.32.16-.43c.1-.1.25-.15.44-.15s.33.05.44.15c.1.1.16.24.16.42s-.05.32-.16.43c-.1.1-.25.15-.44.15s-.33-.05-.44-.15Z"/>
  <path d="M32.03,30.62c.27.15.48.36.62.64s.22.59.22.95c0,.39-.08.72-.25,1.02s-.4.52-.7.68c-.3.16-.65.24-1.05.24-.3,0-.6-.04-.89-.13s-.54-.2-.73-.34l.34-.76c.21.12.43.21.66.28s.43.1.62.1c.33,0,.59-.09.78-.28s.28-.45.28-.77-.08-.56-.25-.74-.41-.26-.71-.26c-.15,0-.3.02-.45.06s-.3.09-.44.17l-.57-.3.15-2.77h2.98v.81h-2.15l-.1,1.31c.23-.08.47-.12.72-.12.36,0,.67.08.94.23Z"/>
  <path d="M24.08,37.65l-1.38,5.66h-1.02l-.91-4.35-.9,4.35h-1.02l-1.37-5.66h.97l.92,4.57.91-4.56h1.01l.92,4.56.91-4.57h.96Z"/>
</svg>