<svg xmlns="http://www.w3.org/2000/svg" viewBox="0 0 42 54">
  <rect x="5.68" y="19.36" width="30.64" height="30.64" rx=".71" ry=".71" fill="none" stroke="#000" stroke-miterlimit="10"/>
  <polyline points="10.71 19.36 10.71 11.69 31.29 11.69 31.29 19.36" fill="none" stroke="#000" stroke-miterlimit="10"/>
  <polyline points="25.34 11.66 25.34 4 28.14 4 28.14 11.66" fill="none" stroke="#000" stroke-miterlimit="10"/>
  <polyline points="13.86 11.66 13.86 4 16.66 4 16.66 11.66" fill="none" stroke="#000" stroke-miterlimit="10"/>
  <path d="M16.93,30.62c.27.15.48.36.62.64s.22.59.22.95c0,.39-.08.72-.25,1.02s-.4.52-.7.68c-.3.16-.65.24-1.05.24-.3,0-.6-.04-.89-.13s-.54-.2-.73-.34l.34-.76c.21.12.43.21.66.28s.43.1.62.1c.33,0,.59-.09.78-.28s.28-.45.28-.77-.08-.56-.25-.74-.41-.26-.71-.26c-.15,0-.3.02-.45.06s-.3.09-.44.17l-.57-.3.15-2.77h2.98v.81h-2.15l-.1,1.31c.23-.08.47-.12.72-.12.36,0,.67.08.94.23Z"/>
  <path d="M19.74,31.33h2.52v.73h-2.52v-.73Z"/>
  <path d="M26.83,30.62c.27.15.48.36.62.64s.22.59.22.95c0,.39-.08.72-.25,1.02s-.4.52-.7.68c-.3.16-.65.24-1.05.24-.3,0-.6-.04-.89-.13s-.54-.2-.73-.34l.34-.76c.21.12.43.21.66.28s.43.1.62.1c.33,0,.59-.09.78-.28s.28-.45.28-.77-.08-.56-.25-.74-.41-.26-.71-.26c-.15,0-.3.02-.45.06s-.3.09-.44.17l-.57-.3.15-2.77h2.98v.81h-2.15l-.1,1.31c.23-.08.47-.12.72-.12.36,0,.67.08.94.23Z"/>
  <path d="M24.08,37.65l-1.38,5.66h-1.02l-.91-4.35-.9,4.35h-1.02l-1.37-5.66h.97l.92,4.57.91-4.56h1.01l.92,4.56.91-4.57h.96Z"/>
</svg>
