<svg xmlns="http://www.w3.org/2000/svg" viewBox="0 0 42 54">
  <rect x="5.68" y="19.36" width="30.64" height="30.64" rx=".71" ry=".71" fill="none" stroke="#000" stroke-miterlimit="10"/>
  <polyline points="10.71 19.36 10.71 11.69 31.29 11.69 31.29 19.36" fill="none" stroke="#000" stroke-miterlimit="10"/>
  <polyline points="25.35 11.66 25.35 4 28.15 4 28.15 11.66" fill="none" stroke="#000" stroke-miterlimit="10"/>
  <polyline points="13.85 11.66 13.85 4 16.65 4 16.65 11.66" fill="none" stroke="#000" stroke-miterlimit="10"/>
  <path d="M13.06,44.29v-2.39h.68v2.43c0,.36.27.64.63.64s.64-.28.64-.64v-2.43h.68v2.39c0,.86-.56,1.31-1.32,1.31s-1.32-.45-1.32-1.31Z"/>
  <path d="M15.91,44.95l.62-.49c.19.32.47.5.8.5.36,0,.56-.24.56-.49,0-.31-.37-.41-.76-.53-.49-.16-1.04-.35-1.04-1.04,0-.59.51-1.05,1.21-1.05.59,0,.93.22,1.23.53l-.56.43c-.16-.23-.37-.35-.66-.35-.33,0-.51.18-.51.42,0,.29.35.39.75.52.5.16,1.06.38,1.06,1.08,0,.58-.46,1.14-1.26,1.14-.66,0-1.1-.28-1.43-.66Z"/>
  <path d="M18.92,41.9h1.15c.8,0,1.27.36,1.27,1.02,0,.31-.14.55-.4.71.34.15.53.44.53.84,0,.72-.51,1.08-1.31,1.08h-1.24v-3.65ZM19.6,42.53v.83h.47c.43,0,.59-.17.59-.43s-.17-.4-.59-.4h-.47ZM19.6,43.99v.94h.56c.41,0,.63-.17.63-.47s-.15-.47-.66-.47h-.53Z"/>
  <path d="M23.01,41.9h1.25c.76,0,1.32.58,1.32,1.3s-.56,1.31-1.32,1.31h-.57v1.05h-.68v-3.65ZM23.69,42.53v1.35h.52c.41,0,.68-.3.68-.67s-.28-.67-.68-.67h-.52Z"/>
  <path d="M25.92,41.9h1c1.23,0,1.93.79,1.93,1.83s-.79,1.83-1.9,1.83h-1.03v-3.65ZM26.6,42.53v2.39h.27c.8,0,1.3-.52,1.3-1.2s-.43-1.2-1.33-1.2h-.24Z"/>
  <path d="M24.17,32.65l-1.38,5.66h-1.02l-.91-4.36-.9,4.36h-1.02l-1.37-5.66h.97l.92,4.56.91-4.55h1.01l.92,4.55.91-4.56h.96Z"/>
  <path d="M12.6,23.38v5.66h-.93v-4.7l-1.23.43-.27-.77,1.62-.62h.8Z"/>
  <path d="M14.27,28.43c-.33-.47-.49-1.21-.49-2.22s.16-1.75.48-2.22.82-.71,1.48-.71,1.16.24,1.49.71.49,1.21.49,2.22-.16,1.75-.49,2.22-.82.71-1.48.71-1.16-.24-1.48-.71ZM16.52,27.81c.16-.34.24-.87.24-1.6s-.08-1.26-.25-1.6-.42-.5-.78-.5-.6.17-.77.5-.24.87-.24,1.6.08,1.26.24,1.6.42.5.77.5.61-.17.77-.5Z"/>
  <path d="M19.72,26.33h2.52v.73h-2.52v-.73Z"/>
  <path d="M27.53,28.23v.81h-3.52v-.82l1.89-2.19c.25-.29.41-.51.51-.68s.14-.32.14-.48c0-.23-.08-.41-.23-.54s-.37-.2-.64-.2c-.21,0-.43.04-.66.11s-.44.18-.64.31l-.42-.71c.23-.17.51-.3.84-.41s.65-.16.96-.16c.34,0,.65.06.91.19s.47.31.61.54.21.5.21.8c0,.27-.07.54-.2.8s-.36.58-.69.95l-1.49,1.67h2.42Z"/>
  <path d="M30.75,25.62c.27.15.48.36.62.64s.22.59.22.95c0,.39-.08.72-.25,1.02s-.4.52-.7.68c-.3.16-.65.24-1.05.24-.3,0-.6-.04-.89-.13s-.54-.2-.73-.34l.34-.76c.21.12.43.21.66.28.22.07.43.1.62.1.33,0,.59-.09.78-.28s.28-.45.28-.77-.08-.56-.25-.74-.41-.26-.71-.26c-.15,0-.3.02-.45.06s-.3.09-.44.17l-.57-.3.15-2.77h2.98v.81h-2.15l-.1,1.31c.23-.08.47-.12.72-.12.36,0,.67.08.94.23Z"/>
</svg>
